<?xml version="1.0" standalone="no"?>
<!DOCTYPE svg PUBLIC "-//W3C//DTD SVG 20010904//EN"
 "http://www.w3.org/TR/2001/REC-SVG-20010904/DTD/svg10.dtd">
<svg version="1.0" xmlns="http://www.w3.org/2000/svg"
 width="144.000000pt" height="144.000000pt" viewBox="0 0 144.000000 144.000000"
 preserveAspectRatio="xMidYMid meet">
<metadata>
Created by potrace 1.14, written by Peter Selinger 2001-2017
</metadata>
<g transform="translate(0.000000,144.000000) scale(0.100000,-0.100000)"
fill="#000000" stroke="none">
<path d="M607 1365 c-4 -8 -1 -15 6 -15 8 0 6 -4 -3 -10 -8 -5 -10 -10 -4 -10
17 0 25 -28 12 -36 -6 -4 -8 -3 -4 4 3 6 2 13 -4 17 -5 3 -10 2 -10 -4 0 -6
-16 -9 -35 -7 -19 1 -40 -1 -47 -5 -14 -9 -18 -69 -5 -69 4 0 2 -6 -5 -14 -7
-8 -27 -12 -47 -10 -41 4 -56 -11 -56 -56 0 -35 -1 -35 -43 -35 -23 0 -42 -4
-42 -8 0 -5 -6 -5 -12 -1 -8 5 -7 0 2 -11 9 -12 10 -16 2 -11 -9 6 -11 1 -8
-19 7 -37 -1 -50 -30 -53 -18 -1 -23 2 -18 11 6 9 4 9 -7 1 -8 -6 -21 -10 -30
-9 -11 2 -15 -4 -13 -21 1 -12 5 -28 10 -35 5 -8 3 -9 -6 -4 -9 6 -10 2 -5
-15 6 -19 4 -22 -9 -17 -9 4 -16 3 -16 -1 0 -5 -12 -7 -28 -6 -15 1 -36 -2
-47 -7 -11 -4 -15 -8 -10 -8 6 -1 11 -17 11 -36 1 -20 -1 -34 -3 -31 -3 3 -12
-2 -20 -10 -8 -8 -20 -11 -26 -7 -19 12 -37 12 -37 2 0 -6 -4 -8 -8 -5 -7 4
-9 -137 -3 -176 0 -5 22 -8 47 -8 38 0 45 -3 40 -16 -3 -8 -2 -12 4 -9 13 8
13 -1 0 -25 -7 -13 -7 -21 0 -25 6 -4 8 -11 4 -16 -3 -6 5 -8 20 -5 14 3 29 0
32 -6 4 -6 10 -5 16 3 7 11 11 11 15 1 2 -6 9 -10 14 -6 5 3 9 -7 8 -23 -4
-67 -2 -70 41 -68 23 1 43 -2 46 -7 3 -4 10 -5 16 -2 6 4 6 -1 -1 -14 -14 -26
-14 -35 0 -26 8 5 8 1 0 -14 -9 -18 -7 -21 19 -31 18 -6 28 -6 25 -1 -4 6 -2
10 4 10 5 0 12 -4 16 -10 3 -5 12 -7 19 -4 8 3 17 1 21 -5 3 -6 1 -11 -5 -11
-8 0 -7 -6 1 -21 6 -12 7 -19 1 -16 -5 4 -7 -4 -5 -17 4 -19 10 -22 48 -21 31
1 46 -4 54 -17 6 -10 7 -18 3 -18 -5 0 -7 -14 -4 -30 4 -30 15 -34 97 -33 6 0
12 -8 12 -18 1 -13 -3 -16 -15 -11 -15 5 -15 4 1 -12 13 -13 15 -22 7 -31 -8
-10 12 -13 102 -14 78 -1 108 2 98 9 -10 6 -11 10 -3 10 7 0 10 7 6 17 -4 10
-2 14 4 10 5 -3 10 0 10 8 0 8 -4 12 -9 9 -4 -3 -8 -1 -8 4 0 14 26 22 71 22
37 0 40 2 34 21 -5 16 -4 19 5 14 9 -5 11 -4 6 3 -14 24 -14 51 0 56 10 4 13
2 8 -7 -6 -9 -5 -9 7 0 16 13 36 12 57 0 11 -8 16 -2 13 16 0 4 5 7 12 7 8 0
7 4 -3 11 -11 8 -12 12 -2 16 6 2 12 9 12 14 0 6 -4 8 -9 5 -9 -6 -9 19 0 28
2 3 26 6 51 7 28 2 49 8 52 16 3 7 2 13 -3 13 -4 0 -8 7 -8 15 0 8 4 12 9 9 4
-3 8 -1 8 5 0 5 -5 13 -10 16 -22 13 3 25 45 20 37 -3 45 -1 50 16 4 10 11 17
16 14 5 -3 6 1 3 9 -3 9 -11 13 -18 9 -6 -4 -3 6 8 21 10 16 14 26 8 22 -5 -3
-16 2 -23 12 -11 14 -11 15 0 5 7 -6 20 -9 27 -6 8 3 14 0 14 -7 0 -10 3 -10
15 0 12 10 15 10 15 -1 0 -11 2 -11 9 -1 4 7 14 12 21 10 7 -2 14 7 16 20 3
17 0 21 -8 16 -8 -5 -8 -1 1 10 12 14 12 19 2 25 -18 11 10 21 60 21 21 0 39
5 39 11 0 5 5 7 12 3 6 -4 4 3 -5 16 -15 22 -15 25 1 44 9 11 12 16 6 13 -15
-9 -27 20 -12 29 7 5 8 2 3 -6 -5 -8 -4 -11 2 -7 14 9 4 59 -11 50 -6 -3 -3 3
7 15 18 20 18 20 0 18 -10 -2 -24 2 -32 8 -11 8 -15 8 -18 -1 -3 -9 -10 -10
-22 -3 -10 5 -21 6 -25 2 -4 -3 -4 1 0 11 4 11 1 17 -7 17 -9 0 -10 3 -4 8 15
11 17 52 2 53 -6 1 -21 3 -32 4 -11 2 -32 5 -47 6 -18 2 -24 7 -18 14 6 7 5
16 -2 23 -7 7 -8 12 -2 12 5 0 10 9 11 20 1 11 -2 18 -8 15 -5 -4 -9 -2 -9 4
0 5 -17 8 -38 6 -21 -2 -45 1 -53 6 -11 7 -12 9 0 9 10 0 11 3 2 14 -9 10 -9
16 -1 21 8 5 7 11 -2 23 -11 13 -11 15 2 7 12 -6 13 -5 3 5 -7 8 -31 13 -58
12 -29 -2 -44 2 -40 8 3 5 2 10 -3 10 -5 0 -9 7 -9 15 0 8 4 12 9 9 4 -3 8 -1
8 5 0 5 -6 12 -12 14 -10 4 -10 6 0 6 11 1 11 4 -1 15 -9 9 -27 13 -50 9 -24
-3 -37 -1 -37 7 0 6 -4 8 -10 5 -5 -3 -10 -1 -10 4 0 6 5 11 10 11 6 0 10 5
10 11 0 5 -6 7 -12 3 -8 -5 -7 0 2 11 12 15 12 17 1 10 -11 -6 -13 -3 -9 13 6
22 -16 39 -27 21 -4 -5 -12 -6 -18 -2 -7 4 -16 8 -22 9 -5 0 -15 2 -21 2 -6 1
-10 17 -10 35 l1 32 -101 3 c-84 2 -103 0 -107 -13z"/>
</g>
</svg>
